G04 EAGLE Gerber RS-274X export*
G75*
%MOMM*%
%FSLAX34Y34*%
%LPD*%
%INBottom Copper*%
%IPPOS*%
%AMOC8*
5,1,8,0,0,1.08239X$1,22.5*%
G01*
G04 Define Apertures*
%ADD10C,1.648500*%
%ADD11C,1.705100*%
%ADD12C,1.300000*%
%ADD13C,1.158000*%
G36*
X142697Y10948D02*
X142500Y10922D01*
X20000Y10922D01*
X19803Y10948D01*
X15645Y12062D01*
X15303Y12259D01*
X12259Y15303D01*
X12062Y15645D01*
X10948Y19803D01*
X10922Y20000D01*
X10922Y132500D01*
X10948Y132697D01*
X12062Y136855D01*
X12259Y137197D01*
X15303Y140241D01*
X15645Y140438D01*
X19803Y141552D01*
X20000Y141578D01*
X142500Y141578D01*
X142697Y141552D01*
X146855Y140438D01*
X147197Y140241D01*
X150241Y137197D01*
X150438Y136855D01*
X151078Y134468D01*
X151103Y134307D01*
X151057Y134007D01*
X150897Y133749D01*
X150650Y133574D01*
X150354Y133509D01*
X150056Y133564D01*
X149803Y133732D01*
X148371Y135164D01*
X145048Y136540D01*
X144520Y136540D01*
X144520Y118460D01*
X145048Y118460D01*
X148371Y119836D01*
X150277Y121743D01*
X150497Y121896D01*
X150792Y121966D01*
X151091Y121915D01*
X151346Y121751D01*
X151518Y121501D01*
X151578Y121204D01*
X151578Y29693D01*
X151533Y29435D01*
X151376Y29176D01*
X151130Y28999D01*
X150834Y28931D01*
X150536Y28984D01*
X150282Y29150D01*
X150112Y29401D01*
X150052Y29545D01*
X147795Y31802D01*
X144846Y33024D01*
X141654Y33024D01*
X138705Y31802D01*
X136448Y29545D01*
X135226Y26596D01*
X135226Y23404D01*
X136448Y20455D01*
X138705Y18198D01*
X141654Y16976D01*
X144846Y16976D01*
X147795Y18198D01*
X150052Y20455D01*
X150112Y20599D01*
X150252Y20819D01*
X150497Y20999D01*
X150792Y21069D01*
X151091Y21018D01*
X151346Y20854D01*
X151518Y20604D01*
X151578Y20307D01*
X151578Y20000D01*
X151552Y19803D01*
X150438Y15645D01*
X150241Y15303D01*
X147197Y12259D01*
X146855Y12062D01*
X142697Y10948D01*
G37*
%LPC*%
G36*
X134210Y128770D02*
X141980Y128770D01*
X141980Y136540D01*
X141452Y136540D01*
X138129Y135164D01*
X135586Y132621D01*
X134210Y129298D01*
X134210Y128770D01*
G37*
G36*
X20154Y119476D02*
X23346Y119476D01*
X26295Y120698D01*
X28552Y122955D01*
X29774Y125904D01*
X29774Y129096D01*
X28552Y132045D01*
X26295Y134302D01*
X23346Y135524D01*
X20154Y135524D01*
X17205Y134302D01*
X14948Y132045D01*
X13726Y129096D01*
X13726Y125904D01*
X14948Y122955D01*
X17205Y120698D01*
X20154Y119476D01*
G37*
G36*
X141452Y118460D02*
X141980Y118460D01*
X141980Y126230D01*
X134210Y126230D01*
X134210Y125702D01*
X135586Y122379D01*
X138129Y119836D01*
X141452Y118460D01*
G37*
G36*
X23545Y92686D02*
X26455Y92686D01*
X29143Y93800D01*
X31201Y95857D01*
X32314Y98545D01*
X32314Y101455D01*
X31201Y104143D01*
X29143Y106201D01*
X26455Y107314D01*
X23545Y107314D01*
X20857Y106201D01*
X18800Y104143D01*
X17686Y101455D01*
X17686Y98545D01*
X18800Y95857D01*
X20857Y93800D01*
X23545Y92686D01*
G37*
G36*
X123935Y92970D02*
X133730Y92970D01*
X133730Y102766D01*
X132799Y102766D01*
X128732Y101081D01*
X125619Y97968D01*
X123935Y93901D01*
X123935Y92970D01*
G37*
G36*
X136270Y92970D02*
X146066Y92970D01*
X146066Y93901D01*
X144381Y97968D01*
X141268Y101081D01*
X137201Y102766D01*
X136270Y102766D01*
X136270Y92970D01*
G37*
G36*
X80557Y80434D02*
X84443Y80434D01*
X88032Y81920D01*
X90780Y84668D01*
X92267Y88257D01*
X92267Y92143D01*
X90780Y95732D01*
X88032Y98480D01*
X84443Y99967D01*
X80557Y99967D01*
X76968Y98480D01*
X74220Y95732D01*
X72734Y92143D01*
X72734Y88257D01*
X74220Y84668D01*
X76968Y81920D01*
X80557Y80434D01*
G37*
G36*
X136270Y80635D02*
X137201Y80635D01*
X141268Y82319D01*
X144381Y85432D01*
X146066Y89499D01*
X146066Y90430D01*
X136270Y90430D01*
X136270Y80635D01*
G37*
G36*
X132799Y80635D02*
X133730Y80635D01*
X133730Y90430D01*
X123935Y90430D01*
X123935Y89499D01*
X125619Y85432D01*
X128732Y82319D01*
X132799Y80635D01*
G37*
G36*
X133001Y56251D02*
X136999Y56251D01*
X140693Y57780D01*
X143520Y60607D01*
X145050Y64301D01*
X145050Y68299D01*
X143520Y71993D01*
X140693Y74820D01*
X136999Y76350D01*
X133001Y76350D01*
X129307Y74820D01*
X126480Y71993D01*
X124951Y68299D01*
X124951Y64301D01*
X126480Y60607D01*
X129307Y57780D01*
X133001Y56251D01*
G37*
G36*
X80557Y55034D02*
X84443Y55034D01*
X88032Y56520D01*
X90780Y59268D01*
X92267Y62857D01*
X92267Y66743D01*
X90780Y70332D01*
X88032Y73080D01*
X84443Y74567D01*
X80557Y74567D01*
X76968Y73080D01*
X74220Y70332D01*
X72734Y66743D01*
X72734Y62857D01*
X74220Y59268D01*
X76968Y56520D01*
X80557Y55034D01*
G37*
G36*
X23545Y52686D02*
X26455Y52686D01*
X29143Y53800D01*
X31201Y55857D01*
X32314Y58545D01*
X32314Y61455D01*
X31201Y64143D01*
X29143Y66201D01*
X26455Y67314D01*
X23545Y67314D01*
X20857Y66201D01*
X18800Y64143D01*
X17686Y61455D01*
X17686Y58545D01*
X18800Y55857D01*
X20857Y53800D01*
X23545Y52686D01*
G37*
G36*
X20154Y16976D02*
X23346Y16976D01*
X26295Y18198D01*
X28552Y20455D01*
X29774Y23404D01*
X29774Y26596D01*
X28552Y29545D01*
X26295Y31802D01*
X23346Y33024D01*
X20154Y33024D01*
X17205Y31802D01*
X14948Y29545D01*
X13726Y26596D01*
X13726Y23404D01*
X14948Y20455D01*
X17205Y18198D01*
X20154Y16976D01*
G37*
%LPD*%
D10*
X82500Y64800D03*
X82500Y90200D03*
D11*
X135000Y66300D03*
X135000Y91700D03*
D12*
X21750Y127500D03*
X143250Y127500D03*
D13*
X25000Y60000D03*
X25000Y100000D03*
D12*
X21750Y25000D03*
X143250Y25000D03*
M02*
