G04 EAGLE Gerber RS-274X export*
G75*
%MOMM*%
%FSLAX34Y34*%
%LPD*%
%INSilkscreen Top*%
%IPPOS*%
%AMOC8*
5,1,8,0,0,1.08239X$1,22.5*%
G01*
G04 Define Apertures*
%ADD10C,0.120000*%
%ADD11C,0.500000*%
%ADD12C,0.127000*%
G36*
X111041Y95250D02*
X108830Y95250D01*
X108830Y101162D01*
X110785Y101162D01*
X111150Y101151D01*
X111494Y101115D01*
X111816Y101056D01*
X112116Y100974D01*
X112395Y100868D01*
X112653Y100739D01*
X112889Y100586D01*
X113104Y100409D01*
X113295Y100211D01*
X113461Y99993D01*
X113601Y99755D01*
X113716Y99497D01*
X113805Y99219D01*
X113869Y98922D01*
X113907Y98604D01*
X113920Y98267D01*
X113898Y97824D01*
X113831Y97409D01*
X113719Y97024D01*
X113563Y96666D01*
X113366Y96343D01*
X113132Y96060D01*
X112861Y95818D01*
X112552Y95615D01*
X112212Y95455D01*
X111847Y95341D01*
X111457Y95273D01*
X111041Y95250D01*
G37*
%LPC*%
G36*
X110949Y95892D02*
X111264Y95910D01*
X111560Y95963D01*
X111836Y96053D01*
X112092Y96177D01*
X112325Y96336D01*
X112528Y96526D01*
X112703Y96747D01*
X112850Y97000D01*
X112966Y97280D01*
X113048Y97585D01*
X113098Y97914D01*
X113114Y98267D01*
X113105Y98534D01*
X113077Y98784D01*
X113030Y99018D01*
X112964Y99236D01*
X112879Y99437D01*
X112776Y99622D01*
X112653Y99791D01*
X112512Y99943D01*
X112353Y100079D01*
X112177Y100196D01*
X111985Y100295D01*
X111775Y100376D01*
X111549Y100439D01*
X111306Y100484D01*
X111045Y100511D01*
X110769Y100520D01*
X109631Y100520D01*
X109631Y95892D01*
X110949Y95892D01*
G37*
%LPD*%
G36*
X103325Y95250D02*
X102611Y95250D01*
X102611Y101162D01*
X103543Y101162D01*
X106740Y96093D01*
X106702Y96803D01*
X106690Y97285D01*
X106690Y101162D01*
X107412Y101162D01*
X107412Y95250D01*
X106447Y95250D01*
X103283Y100285D01*
X103304Y99878D01*
X103325Y99178D01*
X103325Y95250D01*
G37*
G36*
X98661Y95166D02*
X98214Y95189D01*
X97798Y95258D01*
X97414Y95374D01*
X97063Y95535D01*
X96747Y95740D01*
X96471Y95986D01*
X96234Y96272D01*
X96037Y96599D01*
X95882Y96962D01*
X95771Y97355D01*
X95704Y97779D01*
X95682Y98233D01*
X95694Y98583D01*
X95730Y98912D01*
X95791Y99221D01*
X95875Y99510D01*
X95984Y99779D01*
X96117Y100027D01*
X96273Y100254D01*
X96454Y100462D01*
X96657Y100647D01*
X96879Y100807D01*
X97121Y100942D01*
X97383Y101053D01*
X97664Y101140D01*
X97964Y101201D01*
X98284Y101238D01*
X98624Y101251D01*
X99092Y101230D01*
X99513Y101168D01*
X99889Y101064D01*
X100218Y100919D01*
X100507Y100728D01*
X100761Y100488D01*
X100979Y100198D01*
X101162Y99857D01*
X100399Y99631D01*
X100261Y99866D01*
X100099Y100066D01*
X99914Y100233D01*
X99704Y100365D01*
X99469Y100466D01*
X99208Y100538D01*
X98919Y100581D01*
X98603Y100596D01*
X98354Y100586D01*
X98121Y100557D01*
X97903Y100509D01*
X97700Y100441D01*
X97511Y100354D01*
X97338Y100248D01*
X97180Y100122D01*
X97038Y99977D01*
X96911Y99814D01*
X96801Y99636D01*
X96708Y99442D01*
X96632Y99232D01*
X96572Y99006D01*
X96530Y98764D01*
X96505Y98507D01*
X96496Y98233D01*
X96505Y97961D01*
X96532Y97703D01*
X96577Y97460D01*
X96640Y97231D01*
X96721Y97017D01*
X96820Y96818D01*
X96936Y96634D01*
X97071Y96465D01*
X97222Y96313D01*
X97386Y96181D01*
X97564Y96070D01*
X97756Y95979D01*
X97962Y95908D01*
X98181Y95857D01*
X98414Y95827D01*
X98661Y95816D01*
X98946Y95827D01*
X99221Y95861D01*
X99486Y95916D01*
X99742Y95993D01*
X99981Y96089D01*
X100196Y96200D01*
X100387Y96328D01*
X100554Y96471D01*
X100554Y97537D01*
X98787Y97537D01*
X98787Y98208D01*
X101292Y98208D01*
X101292Y96169D01*
X101044Y95943D01*
X100770Y95745D01*
X100468Y95573D01*
X100141Y95428D01*
X99792Y95314D01*
X99430Y95232D01*
X99053Y95182D01*
X98661Y95166D01*
G37*
G36*
X110569Y63500D02*
X109767Y63500D01*
X109767Y69412D01*
X112550Y69412D01*
X112792Y69405D01*
X113020Y69384D01*
X113235Y69350D01*
X113434Y69301D01*
X113620Y69238D01*
X113791Y69161D01*
X113949Y69070D01*
X114092Y68966D01*
X114219Y68848D01*
X114329Y68720D01*
X114423Y68581D01*
X114499Y68431D01*
X114559Y68270D01*
X114601Y68098D01*
X114627Y67915D01*
X114635Y67721D01*
X114611Y67405D01*
X114539Y67115D01*
X114419Y66851D01*
X114251Y66614D01*
X114041Y66410D01*
X113869Y66297D01*
X113794Y66247D01*
X113511Y66127D01*
X113192Y66047D01*
X113906Y64963D01*
X114870Y63500D01*
X113947Y63500D01*
X112411Y65955D01*
X110569Y65955D01*
X110569Y63500D01*
G37*
%LPC*%
G36*
X112503Y66588D02*
X112802Y66607D01*
X113065Y66662D01*
X113292Y66755D01*
X113483Y66884D01*
X113635Y67047D01*
X113743Y67239D01*
X113808Y67461D01*
X113829Y67713D01*
X113807Y67956D01*
X113742Y68168D01*
X113632Y68349D01*
X113479Y68500D01*
X113284Y68618D01*
X113051Y68703D01*
X112780Y68753D01*
X112470Y68770D01*
X110569Y68770D01*
X110569Y66588D01*
X112503Y66588D01*
G37*
%LPD*%
G36*
X96756Y63500D02*
X95955Y63500D01*
X95955Y69412D01*
X98443Y69412D01*
X98685Y69405D01*
X98912Y69383D01*
X99126Y69347D01*
X99326Y69296D01*
X99511Y69230D01*
X99682Y69150D01*
X99840Y69056D01*
X99983Y68947D01*
X100111Y68824D01*
X100222Y68690D01*
X100316Y68544D01*
X100392Y68385D01*
X100452Y68215D01*
X100495Y68033D01*
X100520Y67839D01*
X100529Y67633D01*
X100520Y67429D01*
X100495Y67235D01*
X100452Y67052D01*
X100392Y66880D01*
X100315Y66719D01*
X100221Y66568D01*
X100110Y66428D01*
X99981Y66299D01*
X99838Y66183D01*
X99683Y66082D01*
X99515Y65997D01*
X99335Y65927D01*
X99143Y65873D01*
X98939Y65835D01*
X98722Y65811D01*
X98494Y65804D01*
X96756Y65804D01*
X96756Y63500D01*
G37*
%LPC*%
G36*
X98380Y66437D02*
X98695Y66456D01*
X98968Y66512D01*
X99199Y66604D01*
X99387Y66734D01*
X99534Y66901D01*
X99639Y67105D01*
X99702Y67347D01*
X99723Y67625D01*
X99702Y67893D01*
X99637Y68126D01*
X99530Y68323D01*
X99379Y68484D01*
X99185Y68609D01*
X98949Y68699D01*
X98669Y68752D01*
X98347Y68770D01*
X96756Y68770D01*
X96756Y66437D01*
X98380Y66437D01*
G37*
%LPD*%
G36*
X103705Y63500D02*
X102748Y63500D01*
X101007Y69412D01*
X101842Y69412D01*
X102903Y65657D01*
X103085Y64941D01*
X103251Y64205D01*
X103484Y65212D01*
X103842Y66535D01*
X104649Y69412D01*
X105417Y69412D01*
X106445Y65732D01*
X106655Y64899D01*
X106814Y64205D01*
X106852Y64352D01*
X107036Y65139D01*
X108216Y69412D01*
X109051Y69412D01*
X107309Y63500D01*
X106352Y63500D01*
X105329Y67256D01*
X105205Y67748D01*
X105035Y68519D01*
X104850Y67705D01*
X103705Y63500D01*
G37*
D10*
X147700Y53600D02*
X122300Y53600D01*
X122300Y104400D01*
X147700Y104400D01*
X147700Y53600D01*
D11*
X117260Y66300D03*
D10*
X36750Y111750D02*
X36750Y143250D01*
X128250Y143250D01*
X128250Y111750D01*
X36750Y111750D01*
X36750Y127500D02*
X30790Y127500D01*
X128250Y127500D02*
X134210Y127500D01*
D12*
X3000Y83500D02*
X3000Y80000D01*
X3000Y76500D01*
X47000Y80000D02*
X47000Y83500D01*
X46993Y84036D01*
X46974Y84571D01*
X46941Y85106D01*
X46896Y85640D01*
X46837Y86172D01*
X46766Y86703D01*
X46681Y87232D01*
X46584Y87759D01*
X46474Y88283D01*
X46351Y88805D01*
X46215Y89323D01*
X46067Y89838D01*
X45907Y90349D01*
X45734Y90856D01*
X45548Y91359D01*
X45351Y91857D01*
X45141Y92350D01*
X44920Y92838D01*
X44687Y93320D01*
X44442Y93797D01*
X44185Y94267D01*
X43917Y94731D01*
X43638Y95188D01*
X43348Y95639D01*
X43047Y96082D01*
X42735Y96518D01*
X42413Y96946D01*
X42080Y97366D01*
X41738Y97778D01*
X41385Y98181D01*
X41023Y98576D01*
X40651Y98961D01*
X40270Y99338D01*
X39879Y99705D01*
X39480Y100063D01*
X39073Y100410D01*
X38657Y100748D01*
X38233Y101075D01*
X37801Y101392D01*
X37361Y101699D01*
X36915Y101994D01*
X36461Y102279D01*
X36000Y102553D01*
X35533Y102815D01*
X35059Y103066D01*
X34580Y103305D01*
X34095Y103532D01*
X33604Y103748D01*
X33109Y103951D01*
X32608Y104143D01*
X32103Y104322D01*
X31594Y104488D01*
X31081Y104643D01*
X30565Y104785D01*
X30045Y104914D01*
X29522Y105030D01*
X28996Y105134D01*
X28468Y105225D01*
X27938Y105303D01*
X27406Y105368D01*
X26873Y105420D01*
X26339Y105459D01*
X25803Y105485D01*
X25268Y105498D01*
X24732Y105498D01*
X24197Y105485D01*
X23661Y105459D01*
X23127Y105420D01*
X22594Y105368D01*
X22062Y105303D01*
X21532Y105225D01*
X21004Y105134D01*
X20478Y105030D01*
X19955Y104914D01*
X19435Y104785D01*
X18919Y104643D01*
X18406Y104488D01*
X17897Y104322D01*
X17392Y104143D01*
X16891Y103951D01*
X16396Y103748D01*
X15905Y103532D01*
X15420Y103305D01*
X14941Y103066D01*
X14467Y102815D01*
X14000Y102553D01*
X13539Y102279D01*
X13085Y101994D01*
X12639Y101699D01*
X12199Y101392D01*
X11767Y101075D01*
X11343Y100748D01*
X10927Y100410D01*
X10520Y100063D01*
X10121Y99705D01*
X9730Y99338D01*
X9349Y98961D01*
X8977Y98576D01*
X8615Y98181D01*
X8262Y97778D01*
X7920Y97366D01*
X7587Y96946D01*
X7265Y96518D01*
X6953Y96082D01*
X6652Y95639D01*
X6362Y95188D01*
X6083Y94731D01*
X5815Y94267D01*
X5558Y93797D01*
X5313Y93320D01*
X5080Y92838D01*
X4859Y92350D01*
X4649Y91857D01*
X4452Y91359D01*
X4266Y90856D01*
X4093Y90349D01*
X3933Y89838D01*
X3785Y89323D01*
X3649Y88805D01*
X3526Y88283D01*
X3416Y87759D01*
X3319Y87232D01*
X3234Y86703D01*
X3163Y86172D01*
X3104Y85640D01*
X3059Y85106D01*
X3026Y84571D01*
X3007Y84036D01*
X3000Y83500D01*
X3000Y76500D02*
X3007Y75964D01*
X3026Y75429D01*
X3059Y74894D01*
X3104Y74360D01*
X3163Y73828D01*
X3234Y73297D01*
X3319Y72768D01*
X3416Y72241D01*
X3526Y71717D01*
X3649Y71195D01*
X3785Y70677D01*
X3933Y70162D01*
X4093Y69651D01*
X4266Y69144D01*
X4452Y68641D01*
X4649Y68143D01*
X4859Y67650D01*
X5080Y67162D01*
X5313Y66680D01*
X5558Y66203D01*
X5815Y65733D01*
X6083Y65269D01*
X6362Y64812D01*
X6652Y64361D01*
X6953Y63918D01*
X7265Y63482D01*
X7587Y63054D01*
X7920Y62634D01*
X8262Y62222D01*
X8615Y61819D01*
X8977Y61424D01*
X9349Y61039D01*
X9730Y60662D01*
X10121Y60295D01*
X10520Y59937D01*
X10927Y59590D01*
X11343Y59252D01*
X11767Y58925D01*
X12199Y58608D01*
X12639Y58301D01*
X13085Y58006D01*
X13539Y57721D01*
X14000Y57447D01*
X14467Y57185D01*
X14941Y56934D01*
X15420Y56695D01*
X15905Y56468D01*
X16396Y56252D01*
X16891Y56049D01*
X17392Y55857D01*
X17897Y55678D01*
X18406Y55512D01*
X18919Y55357D01*
X19435Y55215D01*
X19955Y55086D01*
X20478Y54970D01*
X21004Y54866D01*
X21532Y54775D01*
X22062Y54697D01*
X22594Y54632D01*
X23127Y54580D01*
X23661Y54541D01*
X24197Y54515D01*
X24732Y54502D01*
X25268Y54502D01*
X25803Y54515D01*
X26339Y54541D01*
X26873Y54580D01*
X27406Y54632D01*
X27938Y54697D01*
X28468Y54775D01*
X28996Y54866D01*
X29522Y54970D01*
X30045Y55086D01*
X30565Y55215D01*
X31081Y55357D01*
X31594Y55512D01*
X32103Y55678D01*
X32608Y55857D01*
X33109Y56049D01*
X33604Y56252D01*
X34095Y56468D01*
X34580Y56695D01*
X35059Y56934D01*
X35533Y57185D01*
X36000Y57447D01*
X36461Y57721D01*
X36915Y58006D01*
X37361Y58301D01*
X37801Y58608D01*
X38233Y58925D01*
X38657Y59252D01*
X39073Y59590D01*
X39480Y59937D01*
X39879Y60295D01*
X40270Y60662D01*
X40651Y61039D01*
X41023Y61424D01*
X41385Y61819D01*
X41738Y62222D01*
X42080Y62634D01*
X42413Y63054D01*
X42735Y63482D01*
X43047Y63918D01*
X43348Y64361D01*
X43638Y64812D01*
X43917Y65269D01*
X44185Y65733D01*
X44442Y66203D01*
X44687Y66680D01*
X44920Y67162D01*
X45141Y67650D01*
X45351Y68143D01*
X45548Y68641D01*
X45734Y69144D01*
X45907Y69651D01*
X46067Y70162D01*
X46215Y70677D01*
X46351Y71195D01*
X46474Y71717D01*
X46584Y72241D01*
X46681Y72768D01*
X46766Y73297D01*
X46837Y73828D01*
X46896Y74360D01*
X46941Y74894D01*
X46974Y75429D01*
X46993Y75964D01*
X47000Y76500D01*
X47000Y80000D01*
D10*
X36750Y40750D02*
X36750Y9250D01*
X36750Y40750D02*
X128250Y40750D01*
X128250Y9250D01*
X36750Y9250D01*
X36750Y25000D02*
X30790Y25000D01*
X128250Y25000D02*
X134210Y25000D01*
M02*
